<?xml version="1.0" ?><!DOCTYPE svg  PUBLIC '-//W3C//DTD SVG 1.1//EN'  'http://www.w3.org/Graphics/SVG/1.1/DTD/svg11.dtd'><svg enable-background="new 0 0 64 64" id="Layer_1" version="1.1" viewBox="0 0 64 64" xml:space="preserve" xmlns="http://www.w3.org/2000/svg" xmlns:xlink="http://www.w3.org/1999/xlink"><path d="M35,53h-6V22h6V53z" fill="#7ABE90"/><path d="M45,53h-6V17h6V53z" fill="#F8B319"/><path d="M55,53h-6V11h6V53z" fill="#7ABE90"/><path d="M15,53H9V30h6V53z" fill="#7ABE90"/><path d="M25,53h-6V26h6V53z" fill="#F8B319"/><path d="  M55,33v20h-6V36 M49,29V11h6v11" fill="none" stroke="#2C3E50" stroke-linecap="round" stroke-linejoin="round" stroke-miterlimit="10" stroke-width="2"/><path d="  M15,46v7H9v-7 M9,41V30h6v10" fill="none" stroke="#2C3E50" stroke-linecap="round" stroke-linejoin="round" stroke-miterlimit="10" stroke-width="2"/><path d="  M25,45v8h-6v-7 M19,40V26h6v13" fill="none" stroke="#2C3E50" stroke-linecap="round" stroke-linejoin="round" stroke-miterlimit="10" stroke-width="2"/><path d="  M35,42v11h-6v-9 M29,38V22h6v14" fill="none" stroke="#2C3E50" stroke-linecap="round" stroke-linejoin="round" stroke-miterlimit="10" stroke-width="2"/><path d="  M45,39v14h-6V41 M39,35V17h6v15" fill="none" stroke="#2C3E50" stroke-linecap="round" stroke-linejoin="round" stroke-miterlimit="10" stroke-width="2"/><line fill="none" stroke="#2C3E50" stroke-linecap="round" stroke-linejoin="round" stroke-miterlimit="10" stroke-width="2" x1="7" x2="57" y1="57" y2="57"/><path d="  M7.2,43.5c0,0,35.5,0.8,49.8-18.4" fill="none" stroke="#2C3E50" stroke-linecap="round" stroke-linejoin="round" stroke-miterlimit="10" stroke-width="2"/><line fill="none" stroke="#2C3E50" stroke-linecap="round" stroke-linejoin="round" stroke-miterlimit="10" stroke-width="2" x1="57" x2="57" y1="25.1" y2="31"/><line fill="none" stroke="#2C3E50" stroke-linecap="round" stroke-linejoin="round" stroke-miterlimit="10" stroke-width="2" x1="57" x2="52" y1="25.1" y2="25.1"/></svg>