<?xml version="1.0" encoding="UTF-8" standalone="no"?>
<svg
   xmlns:dc="http://purl.org/dc/elements/1.1/"
   xmlns:cc="http://creativecommons.org/ns#"
   xmlns:rdf="http://www.w3.org/1999/02/22-rdf-syntax-ns#"
   xmlns:svg="http://www.w3.org/2000/svg"
   xmlns="http://www.w3.org/2000/svg"
   version="1.1"
   viewBox="0 0 552.67837 550.66012"
   height="155.40852mm"
   width="155.97812mm">
  <defs
     id="defs4209">
    <marker
       style="overflow:visible"
       id="marker4986"
       refX="0"
       refY="0"
       orient="auto">
      <path
         transform="matrix(-0.8,0,0,-0.8,-10,0)"
         style="fill:#000000;fill-opacity:1;fill-rule:evenodd;stroke:#000000;stroke-width:1pt;stroke-opacity:1"
         d="M 0,0 5,-5 -12.5,0 5,5 0,0 Z"
         id="path4988" />
    </marker>
    <marker
       style="overflow:visible"
       id="Arrow1Lstart"
       refX="0"
       refY="0"
       orient="auto">
      <path
         transform="matrix(0.8,0,0,0.8,10,0)"
         style="fill:#000000;fill-opacity:1;fill-rule:evenodd;stroke:#000000;stroke-width:1pt;stroke-opacity:1"
         d="M 0,0 5,-5 -12.5,0 5,5 0,0 Z"
         id="path4658" />
    </marker>
    <marker
       style="overflow:visible"
       id="marker4976"
       refX="0"
       refY="0"
       orient="auto">
      <path
         transform="matrix(-0.8,0,0,-0.8,-10,0)"
         style="fill:#000000;fill-opacity:1;fill-rule:evenodd;stroke:#000000;stroke-width:1pt;stroke-opacity:1"
         d="M 0,0 5,-5 -12.5,0 5,5 0,0 Z"
         id="path4978" />
    </marker>
    <marker
       style="overflow:visible"
       id="marker4972"
       refX="0"
       refY="0"
       orient="auto">
      <path
         transform="matrix(-0.8,0,0,-0.8,-10,0)"
         style="fill:#000000;fill-opacity:1;fill-rule:evenodd;stroke:#000000;stroke-width:1pt;stroke-opacity:1"
         d="M 0,0 5,-5 -12.5,0 5,5 0,0 Z"
         id="path4974" />
    </marker>
    <marker
       style="overflow:visible"
       id="marker4968"
       refX="0"
       refY="0"
       orient="auto">
      <path
         transform="matrix(-0.8,0,0,-0.8,-10,0)"
         style="fill:#000000;fill-opacity:1;fill-rule:evenodd;stroke:#000000;stroke-width:1pt;stroke-opacity:1"
         d="M 0,0 5,-5 -12.5,0 5,5 0,0 Z"
         id="path4970" />
    </marker>
    <marker
       style="overflow:visible"
       id="marker4964"
       refX="0"
       refY="0"
       orient="auto">
      <path
         transform="matrix(0.8,0,0,0.8,10,0)"
         style="fill:#000000;fill-opacity:1;fill-rule:evenodd;stroke:#000000;stroke-width:1pt;stroke-opacity:1"
         d="M 0,0 5,-5 -12.5,0 5,5 0,0 Z"
         id="path4966" />
    </marker>
    <marker
       orient="auto"
       refY="0"
       refX="0"
       id="marker4958"
       style="overflow:visible">
      <path
         id="path4960"
         d="M 0,0 5,-5 -12.5,0 5,5 0,0 Z"
         style="fill:#000000;fill-opacity:1;fill-rule:evenodd;stroke:#000000;stroke-width:1pt;stroke-opacity:1"
         transform="matrix(-0.8,0,0,-0.8,-10,0)" />
    </marker>
    <marker
       style="overflow:visible"
       id="Arrow1Lend"
       refX="0"
       refY="0"
       orient="auto">
      <path
         transform="matrix(-0.8,0,0,-0.8,-10,0)"
         style="fill:#000000;fill-opacity:1;fill-rule:evenodd;stroke:#000000;stroke-width:1pt;stroke-opacity:1"
         d="M 0,0 5,-5 -12.5,0 5,5 0,0 Z"
         id="path4661" />
    </marker>
    <marker
       orient="auto"
       refY="0"
       refX="0"
       id="marker4952"
       style="overflow:visible">
      <path
         id="path4954"
         d="M 0,0 5,-5 -12.5,0 5,5 0,0 Z"
         style="fill:#000000;fill-opacity:1;fill-rule:evenodd;stroke:#000000;stroke-width:1pt;stroke-opacity:1"
         transform="matrix(0.8,0,0,0.8,10,0)" />
    </marker>
    <marker
       orient="auto"
       refY="0"
       refX="0"
       id="marker4944"
       style="overflow:visible">
      <path
         id="path4946"
         d="M 0,0 5,-5 -12.5,0 5,5 0,0 Z"
         style="fill:#000000;fill-opacity:1;fill-rule:evenodd;stroke:#000000;stroke-width:1pt;stroke-opacity:1"
         transform="matrix(0.8,0,0,0.8,10,0)" />
    </marker>
    <marker
       style="overflow:visible"
       id="marker4932"
       refX="0"
       refY="0"
       orient="auto">
      <path
         transform="matrix(0.8,0,0,0.8,10,0)"
         style="fill:#000000;fill-opacity:1;fill-rule:evenodd;stroke:#000000;stroke-width:1pt;stroke-opacity:1"
         d="M 0,0 5,-5 -12.5,0 5,5 0,0 Z"
         id="path4934" />
    </marker>
    <marker
       style="overflow:visible"
       id="marker4924"
       refX="0"
       refY="0"
       orient="auto">
      <path
         transform="matrix(0.8,0,0,0.8,10,0)"
         style="fill:#000000;fill-opacity:1;fill-rule:evenodd;stroke:#000000;stroke-width:1pt;stroke-opacity:1"
         d="M 0,0 5,-5 -12.5,0 5,5 0,0 Z"
         id="path4926" />
    </marker>
    <marker
       orient="auto"
       refY="0"
       refX="0"
       id="marker4916"
       style="overflow:visible">
      <path
         id="path4918"
         d="M 0,0 5,-5 -12.5,0 5,5 0,0 Z"
         style="fill:#000000;fill-opacity:1;fill-rule:evenodd;stroke:#000000;stroke-width:1pt;stroke-opacity:1"
         transform="matrix(0.8,0,0,0.8,10,0)" />
    </marker>
  </defs>
  <metadata
     id="metadata4212">
    <rdf:RDF>
      <cc:Work
         rdf:about="">
        <dc:format>image/svg+xml</dc:format>
        <dc:type
           rdf:resource="http://purl.org/dc/dcmitype/StillImage" />
        <dc:title></dc:title>
      </cc:Work>
    </rdf:RDF>
  </metadata>
  <g
     transform="translate(-96.576177,-250.84766)"
     style="display:inline"
     id="layer6">
    <path
       id="circle4286-8-9"
       d="m 521.8125,407.52539 c 21.9129,27.71411 35.96738,61.57052 40.11914,96.65625 28.30664,0 56.61328,0 84.91992,0 -4.63843,-57.24152 -27.61311,-112.84723 -64.91211,-156.7832 -20.04231,20.04232 -40.08463,40.08463 -60.12695,60.12695 z"
       style="display:inline;fill:#f5deb3;fill-opacity:1;stroke:#000000;stroke-width:1;stroke-linejoin:round;stroke-miterlimit:4;stroke-dasharray:none;stroke-dashoffset:0;stroke-opacity:1" />
    <path
       id="circle4286-8"
       d="m 394.04688,336.30078 c 35.08842,4.14618 68.93916,18.20959 96.66406,40.10742 20.0306,-20.0306 40.0612,-40.06119 60.09179,-60.09179 -43.80404,-37.26862 -99.61634,-60.34889 -156.75585,-64.96875 -10e-6,28.3177 0,56.63541 0,84.95312 z"
       style="display:inline;fill:#f5deb3;fill-opacity:1;stroke:#000000;stroke-width:1;stroke-linejoin:round;stroke-miterlimit:4;stroke-dasharray:none;stroke-dashoffset:0;stroke-opacity:1" />
    <path
       id="circle4286"
       d="m 344.10742,251.75391 c -55.13913,5.89065 -108.38126,28.64145 -150.91992,64.48242 20.29067,19.84451 39.83615,40.44039 60.34375,60.06445 27.69254,-21.84132 61.48945,-35.85805 96.51563,-40.0039 -10e-6,-28.2793 0,-56.5586 0,-84.8379 -1.97982,0.0983 -3.95964,0.19662 -5.93946,0.29493 z"
       style="display:inline;fill:#f5deb3;fill-opacity:1;stroke:#000000;stroke-width:1;stroke-linejoin:round;stroke-miterlimit:4;stroke-dasharray:none;stroke-dashoffset:0;stroke-opacity:1" />
    <path
       id="circle4280"
       d="m 158.31445,351.78906 c -34.97538,43.24477 -56.42908,97.17572 -61.238278,152.45508 28.370398,-0.43111 56.746958,0.40958 85.115238,-0.25976 4.17955,-35.01772 18.22849,-68.79276 40.08398,-96.4668 -20.01693,-20.01628 -40.03385,-40.03255 -60.05078,-60.04883 -1.30339,1.4401 -2.60677,2.88021 -3.91016,4.32031 z"
       style="display:inline;fill:#f5deb3;fill-opacity:1;stroke:#000000;stroke-width:1;stroke-linejoin:round;stroke-miterlimit:4;stroke-dasharray:none;stroke-dashoffset:0;stroke-opacity:1" />
    <path
       id="circle4274"
       d="m 97.619141,554.12109 c 5.891459,55.1389 28.640279,108.38337 64.484379,150.91993 19.84329,-20.29063 40.43869,-39.8366 60.0625,-60.34375 -21.83755,-27.69521 -35.85546,-61.48992 -40.00391,-96.51563 -28.2793,0 -56.55859,0 -84.837891,0 0.09831,1.97982 0.196614,3.95964 0.294922,5.93945 z"
       style="display:inline;fill:#f5deb3;fill-opacity:1;stroke:#000000;stroke-width:1;stroke-linejoin:round;stroke-miterlimit:4;stroke-dasharray:none;stroke-dashoffset:0;stroke-opacity:1" />
    <path
       id="circle4268"
       d="m 193.28906,736.04883 c 43.79442,37.26224 99.51053,60.30467 156.71094,64.95898 -0.0705,-28.32403 0.38613,-56.65112 -0.16211,-84.97265 -35.01396,-4.17881 -68.78301,-18.23106 -96.45508,-40.08204 -20.03125,20.03191 -40.0625,40.06381 -60.09375,60.09571 z"
       style="display:inline;fill:#f5deb3;fill-opacity:1;stroke:#000000;stroke-width:1;stroke-linejoin:round;stroke-miterlimit:4;stroke-dasharray:none;stroke-dashoffset:0;stroke-opacity:1" />
    <path
       id="path4224-4"
       d="m 488.25977,677.91211 c -27.28112,20.76306 -60.16188,34.10987 -94.21289,38.14062 -10e-6,28.3112 0,56.6224 0,84.9336 57.24189,-4.63837 112.84698,-27.61318 156.7832,-64.91211 -20.0293,-20.0293 -40.0586,-40.05859 -60.08789,-60.08789 -0.82748,0.64193 -1.65495,1.28385 -2.48242,1.92578 z"
       style="display:inline;fill:#f5deb3;fill-opacity:1;stroke:#000000;stroke-width:1;stroke-linejoin:round;stroke-miterlimit:4;stroke-dasharray:none;stroke-dashoffset:0;stroke-opacity:1" />
    <path
       id="path4224"
       d="m 561.58789,551.32227 c -4.67295,33.95453 -18.51444,66.62059 -39.78125,93.50976 20.03516,20.03516 40.07031,40.07031 60.10547,60.10547 37.2741,-43.81802 60.33777,-99.57524 64.9668,-156.75586 -28.29623,0 -56.59245,0 -84.88868,0 -0.13411,1.04688 -0.26822,2.09375 -0.40234,3.14063 z"
       style="display:inline;fill:#f5deb3;fill-opacity:1;stroke:#000000;stroke-width:1;stroke-linejoin:round;stroke-miterlimit:4;stroke-dasharray:none;stroke-dashoffset:0;stroke-opacity:1" />
    <rect
       y="450.46683"
       x="296.33295"
       height="151.42857"
       width="151.42857"
       id="rect4545"
       style="fill:#cd853f;fill-opacity:1;stroke:#000000;stroke-width:1;stroke-linejoin:round;stroke-miterlimit:4;stroke-dasharray:none;stroke-dashoffset:0;stroke-opacity:1" />
    <text
       id="text4553"
       y="533.36218"
       x="340.14285"
       style="line-height:125%;letter-spacing:0px;word-spacing:0px;fill:#000000;fill-opacity:1;stroke:none;stroke-width:1px;stroke-linecap:butt;stroke-linejoin:miter;stroke-opacity:1"
       xml:space="preserve"><tspan
         id="tspan4561"
        y="533.36218"
         x="340.14285"
        >Stats</tspan></text>
    <text
       id="text4565"
       y="104.36218"
       x="394"
       style="line-height:125%;letter-spacing:0px;word-spacing:0px;fill:#000000;fill-opacity:1;stroke:none;stroke-width:1px;stroke-linecap:butt;stroke-linejoin:miter;stroke-opacity:1"
       xml:space="preserve"><tspan
         y="104.36218"
         x="394"
         id="tspan4567" /></text>
    <text
       xml:space="preserve"
       style="line-height:125%;letter-spacing:0px;word-spacing:0px;fill:#000000;fill-opacity:1;stroke:none;stroke-width:1px;stroke-linecap:butt;stroke-linejoin:miter;stroke-opacity:1"
       x="286.01318"
       y="322.22113"
       id="text4571"><tspan
         x="286.01318"
         y="322.22113"
         id="tspan4573"
         style="text-align:center;text-anchor:middle">Service</tspan></text>
    <text
       id="text4575"
       y="325.22113"
       x="466.01318"
       style="line-height:125%;letter-spacing:0px;word-spacing:0px;fill:#000000;fill-opacity:1;stroke:none;stroke-width:1px;stroke-linecap:butt;stroke-linejoin:miter;stroke-opacity:1"
       xml:space="preserve"><tspan
         style="text-align:center;text-anchor:middle"
         id="tspan4577"
         y="325.22113"
         x="466.01318">Service</tspan></text>
    <text
       xml:space="preserve"
       style="line-height:125%;letter-spacing:0px;word-spacing:0px;fill:#000000;fill-opacity:1;stroke:none;stroke-width:1px;stroke-linecap:butt;stroke-linejoin:miter;stroke-opacity:1"
       x="590.01318"
       y="462.22113"
       id="text4579"><tspan
         x="590.01318"
         y="462.22113"
         id="tspan4581"
         style="text-align:center;text-anchor:middle">Service</tspan></text>
    <text
       id="text4587"
       y="457.22113"
       x="152.01318"
       style="line-height:125%;letter-spacing:0px;word-spacing:0px;fill:#000000;fill-opacity:1;stroke:none;stroke-width:1px;stroke-linecap:butt;stroke-linejoin:miter;stroke-opacity:1"
       xml:space="preserve"><tspan
         style="text-align:center;text-anchor:middle"
         id="tspan4589"
         y="457.22113"
         x="152.01318">Service</tspan></text>
    <text
       xml:space="preserve"
       style="line-height:125%;letter-spacing:0px;word-spacing:0px;fill:#000000;fill-opacity:1;stroke:none;stroke-width:1px;stroke-linecap:butt;stroke-linejoin:miter;stroke-opacity:1"
       x="154.01318"
       y="624.22113"
       id="text4591"><tspan
         x="154.01318"
         y="624.22113"
         id="tspan4593"
         style="text-align:center;text-anchor:middle">Service</tspan></text>
    <text
       id="text4595"
       y="624.22113"
       x="590.01318"
       style="line-height:125%;letter-spacing:0px;word-spacing:0px;fill:#000000;fill-opacity:1;stroke:none;stroke-width:1px;stroke-linecap:butt;stroke-linejoin:miter;stroke-opacity:1"
       xml:space="preserve"><tspan
         style="text-align:center;text-anchor:middle"
         id="tspan4597"
         y="624.22113"
         x="590.01318">Service</tspan></text>
    <text
       xml:space="preserve"
       style="line-height:125%;letter-spacing:0px;word-spacing:0px;fill:#000000;fill-opacity:1;stroke:none;stroke-width:1px;stroke-linecap:butt;stroke-linejoin:miter;stroke-opacity:1"
       x="463.01318"
       y="755.22113"
       id="text4599"><tspan
         x="463.01318"
         y="755.22113"
         id="tspan4601"
         style="text-align:center;text-anchor:middle">Service</tspan></text>
    <text
       id="text4603"
       y="750.22113"
       x="282.01318"
       style="line-height:125%;letter-spacing:0px;word-spacing:0px;fill:#000000;fill-opacity:1;stroke:none;stroke-width:1px;stroke-linecap:butt;stroke-linejoin:miter;stroke-opacity:1"
       xml:space="preserve"><tspan
         style="text-align:center;text-anchor:middle"
         id="tspan4605"
         y="750.22113"
         x="282.01318">Service</tspan></text>
    <path
       id="path4938"
       d="m 300,702.36218 c 0,0 25,-60 37.5,-90"
       style="fill:none;fill-rule:evenodd;stroke:#000000;stroke-width:1px;stroke-linecap:butt;stroke-linejoin:miter;stroke-opacity:1;marker-end:url(#Arrow1Lend)" />
    <path
       id="path4629"
       d="m 412.5,432.36218 37.5,-90"
       style="fill:none;fill-rule:evenodd;stroke:#000000;stroke-width:1px;stroke-linecap:butt;stroke-linejoin:miter;stroke-opacity:1;marker-start:url(#Arrow1Lstart)" />
    <path
       id="path4922"
       d="M 195.3033,454.4835 280,489.86218"
       style="fill:none;fill-rule:evenodd;stroke:#000000;stroke-width:1px;stroke-linecap:butt;stroke-linejoin:miter;stroke-opacity:1;marker-end:url(#marker4972)" />
    <path
       id="path4627"
       d="m 460,564.86218 87.75,36.5"
       style="fill:none;fill-rule:evenodd;stroke:#000000;stroke-width:1px;stroke-linecap:butt;stroke-linejoin:miter;stroke-opacity:1;marker-start:url(#marker4924)" />
    <path
       id="path4930"
       d="M 301.76777,348.01903 337.5,434.86218"
       style="fill:none;fill-rule:evenodd;stroke:#000000;stroke-width:1px;stroke-linecap:butt;stroke-linejoin:miter;stroke-opacity:1;marker-end:url(#marker4976)" />
    <path
       id="path4631"
       d="m 412.5,619.86218 33.25736,82.95406"
       style="fill:none;fill-rule:evenodd;stroke:#000000;stroke-width:1px;stroke-linecap:butt;stroke-linejoin:miter;stroke-opacity:1;marker-start:url(#marker4932)" />
    <path
       id="path4652"
       d="M 194.49569,597.41243 275,564.86218"
       style="fill:none;fill-rule:evenodd;stroke:#000000;stroke-width:1px;stroke-linecap:butt;stroke-linejoin:miter;stroke-opacity:1;marker-end:url(#marker4968)" />
    <path
       id="path4633"
       d="M 465,489.86218 499.80108,476.12491 550,456.86218"
       style="fill:none;fill-rule:evenodd;stroke:#000000;stroke-width:1px;stroke-linecap:butt;stroke-linejoin:miter;stroke-opacity:1;marker-start:url(#marker4916)" />
    <path
       id="path4984"
       d="m 450,522.36218 151.20586,0"
       style="fill:none;fill-rule:evenodd;stroke:#000000;stroke-width:0.78241259px;stroke-linecap:butt;stroke-linejoin:miter;stroke-opacity:1;marker-end:url(#marker4986)" />
    <text
       id="text5002"
       y="536.70239"
       x="594.06665"
       style="line-height:125%;letter-spacing:0px;word-spacing:0px;fill:#000000;fill-opacity:1;stroke:none;stroke-width:1px;stroke-linecap:butt;stroke-linejoin:miter;stroke-opacity:1"
       xml:space="preserve"><tspan
         style=""
         y="536.70239"
         x="594.06665"
         id="tspan5004">TSL</tspan></text>
    <text
       xml:space="preserve"
       style="line-height:125%;letter-spacing:0px;word-spacing:0px;fill:#000000;fill-opacity:1;stroke:none;stroke-width:1px;stroke-linecap:butt;stroke-linejoin:miter;stroke-opacity:1"
       x="341.92746"
       y="672.5882"
       id="text5006"><tspan
         id="tspan5008"
         x="341.92746"
         y="672.5882"
         style="">UDP</tspan></text>
    <text
       id="text5010"
       y="541.06635"
       x="193.43503"
       style="line-height:125%;letter-spacing:0px;word-spacing:0px;fill:#000000;fill-opacity:1;stroke:none;stroke-width:1px;stroke-linecap:butt;stroke-linejoin:miter;stroke-opacity:1"
       xml:space="preserve"><tspan
         style=""
         y="541.06635"
         x="193.43503"
         id="tspan5012">UDP</tspan></text>
    <text
       xml:space="preserve"
       style="line-height:125%;letter-spacing:0px;word-spacing:0px;fill:#000000;fill-opacity:1;stroke:none;stroke-width:1px;stroke-linecap:butt;stroke-linejoin:miter;stroke-opacity:1"
       x="336.97769"
       y="400.35208"
       id="text5014"><tspan
         id="tspan5016"
         x="336.97769"
         y="400.35208"
         style="">UDP</tspan></text>
  </g>
</svg>
